<svg xmlns="http://www.w3.org/2000/svg" xmlns:xlink="http://www.w3.org/1999/xlink" width="500" zoomAndPan="magnify" viewBox="0 0 375 374.999991" height="500" preserveAspectRatio="xMidYMid meet" version="1.0"><defs><g/><clipPath id="6346335cf4"><path d="M 277.523438 78.007812 L 375 78.007812 L 375 272.941406 L 277.523438 272.941406 Z M 277.523438 78.007812 " clip-rule="nonzero"/></clipPath><clipPath id="f84480be80"><path d="M 375 78.007812 C 321.164062 78.007812 277.523438 121.644531 277.523438 175.476562 C 277.523438 229.304688 321.164062 272.941406 375 272.941406 C 428.835938 272.941406 472.476562 229.304688 472.476562 175.476562 C 472.476562 121.644531 428.835938 78.007812 375 78.007812 Z M 375 78.007812 " clip-rule="nonzero"/></clipPath></defs><rect x="-37.5" width="450" fill="#ffffff" y="-37.499999" height="449.999989" fill-opacity="1"/><rect x="-37.5" width="450" fill="#2a6699" y="-37.499999" height="449.999989" fill-opacity="1"/><g clip-path="url(#6346335cf4)"><g clip-path="url(#f84480be80)"><path fill="#ffffff" d="M 277.523438 78.007812 L 472.457031 78.007812 L 472.457031 272.941406 L 277.523438 272.941406 Z M 277.523438 78.007812 " fill-opacity="1" fill-rule="nonzero"/></g></g><g fill="#fefdff" fill-opacity="1"><g transform="translate(24.724267, 354.131869)"><g><path d="M 22.859375 0 L 16.109375 0 L 3.03125 -60.625 L 9.78125 -60.625 L 20.09375 -10.5625 L 35.078125 -60.625 L 41.578125 -60.625 L 56.5625 -10.734375 L 66.953125 -60.625 L 73.4375 -60.625 L 60.359375 0 L 53.609375 0 L 38.28125 -51.359375 Z M 22.859375 0 "/></g></g></g><g fill="#fefdff" fill-opacity="1"><g transform="translate(98.512824, 354.131869)"><g/></g></g><g fill="#fefdff" fill-opacity="1"><g transform="translate(114.534626, 354.131869)"><g><path d="M 6.671875 0 L 6.671875 -60.625 L 50.0625 -60.625 L 50.0625 -54.734375 L 13.34375 -54.734375 L 13.34375 -33.515625 L 37.328125 -33.515625 L 37.328125 -27.71875 L 13.34375 -27.71875 L 13.34375 -5.890625 L 50.40625 -5.890625 L 50.40625 0 Z M 6.671875 0 "/></g></g></g><g fill="#fefdff" fill-opacity="1"><g transform="translate(165.285775, 354.131869)"><g/></g></g><g fill="#fefdff" fill-opacity="1"><g transform="translate(181.307583, 354.131869)"><g><path d="M 6.671875 -60.625 L 31.265625 -60.625 C 37.097656 -60.625 41.742188 -59.207031 45.203125 -56.375 C 48.671875 -53.550781 50.40625 -49.769531 50.40625 -45.03125 C 50.40625 -41.914062 49.582031 -39.203125 47.9375 -36.890625 C 46.289062 -34.585938 44.023438 -32.828125 41.140625 -31.609375 C 44.773438 -30.515625 47.644531 -28.679688 49.75 -26.109375 C 51.863281 -23.546875 52.921875 -20.53125 52.921875 -17.0625 C 52.921875 -11.863281 51.03125 -7.71875 47.25 -4.625 C 43.46875 -1.539062 38.488281 0 32.3125 0 L 6.671875 0 Z M 30.921875 -54.828125 L 13.34375 -54.828125 L 13.34375 -34.203125 L 30.921875 -34.203125 C 34.847656 -34.203125 37.976562 -35.140625 40.3125 -37.015625 C 42.65625 -38.898438 43.828125 -41.398438 43.828125 -44.515625 C 43.828125 -47.628906 42.65625 -50.125 40.3125 -52 C 37.976562 -53.882812 34.847656 -54.828125 30.921875 -54.828125 Z M 31.78125 -5.796875 C 36.113281 -5.796875 39.59375 -6.832031 42.21875 -8.90625 C 44.84375 -10.988281 46.15625 -13.765625 46.15625 -17.234375 C 46.15625 -20.703125 44.84375 -23.472656 42.21875 -25.546875 C 39.59375 -27.628906 36.113281 -28.671875 31.78125 -28.671875 L 13.34375 -28.671875 L 13.34375 -5.796875 Z M 31.78125 -5.796875 "/></g></g></g><g fill="#fefdff" fill-opacity="1"><g transform="translate(235.60963, 354.131869)"><g/></g></g><g fill="#fefdff" fill-opacity="1"><g transform="translate(251.646329, 354.131869)"><g><path d="M 58.203125 -26.25 C 58.203125 -22.144531 57.566406 -18.398438 56.296875 -15.015625 C 55.023438 -11.640625 53.21875 -8.78125 50.875 -6.4375 C 48.539062 -4.101562 45.710938 -2.300781 42.390625 -1.03125 C 39.078125 0.226562 35.398438 0.859375 31.359375 0.859375 C 27.253906 0.859375 23.539062 0.226562 20.21875 -1.03125 C 16.90625 -2.300781 14.09375 -4.101562 11.78125 -6.4375 C 9.46875 -8.78125 7.675781 -11.625 6.40625 -14.96875 C 5.132812 -18.320312 4.5 -22.082031 4.5 -26.25 L 4.5 -60.625 L 17.0625 -60.625 L 17.0625 -26.25 C 17.0625 -21.570312 18.375 -17.816406 21 -14.984375 C 23.625 -12.148438 27.101562 -10.734375 31.4375 -10.734375 C 35.769531 -10.734375 39.21875 -12.148438 41.78125 -14.984375 C 44.351562 -17.816406 45.640625 -21.570312 45.640625 -26.25 L 45.640625 -60.625 L 58.203125 -60.625 Z M 58.203125 -26.25 "/></g></g></g><g fill="#fefdff" fill-opacity="1"><g transform="translate(311.837626, 354.131869)"><g/></g></g><g fill="#fefdff" fill-opacity="1"><g transform="translate(326.646917, 354.131869)"><g><path d="M 5.453125 0 L 5.453125 -60.625 L 18.015625 -60.625 L 18.015625 0 Z M 5.453125 0 "/></g></g></g></svg>